<?xml version="1.0" encoding="UTF-8" standalone="no" ?>
<svg xmlns="http://www.w3.org/2000/svg" width="34.424px" height="18.024px" viewBox="0 -748 1902 996" xmlns:xlink="http://www.w3.org/1999/xlink"><defs><path id="MJX-6-NCM-I-1D453" d="M552 633C552 677 509 705 462 705C400 705 357 665 334 586C329 568 318 517 302 433L237 433C215 433 204 432 204 411C204 400 214 395 235 395L295 395L222 8C211-49 201-91 192-119C180-156 163-175 141-175C126-175 114-171 103-164C135-159 151-140 151-108C151-82 138-69 111-69C77-69 53-99 53-133C53-177 94-205 141-205C166-205 189-195 208-174C240-141 265-94 283-31C294 8 304 46 311 84L369 395L451 395C474 395 484 396 484 419C484 428 474 433 454 433L377 433C383 474 411 625 420 644C430 665 444 675 462 675C477 675 490 671 501 664C470 657 454 639 454 608C454 582 467 569 494 569C528 569 552 599 552 633Z"/><path id="MJX-6-NCM-N-2061" d=""/><path id="MJX-6-NCM-N-28" d="M318-248C327-248 332-243 332-234C332-231 330-227 327-223C275-183 233-117 202-26C175 53 161 131 161 208L161 292C161 369 175 447 202 526C233 617 275 683 327 723C330 726 332 730 332 734C332 743 327 748 318 748C317 748 314 747 311 745C251 699 201 631 160 540C121 453 101 371 101 292L101 208C101 129 121 47 160-40C201-131 251-199 311-245C314-247 317-248 318-248Z"/><path id="MJX-6-NCM-I-1D465" d="M527 373C527 419 482 442 432 442C389 442 355 419 329 373C308 419 273 442 222 442C173 442 133 419 101 374C74 335 60 306 60 287C60 278 65 273 75 273C84 273 90 278 92 287C111 345 153 413 220 413C253 413 269 392 269 351C269 330 251 252 216 118C199 51 169 18 126 18C112 18 99 21 88 26C114 36 127 54 127 80C127 106 114 119 87 119C54 119 29 91 29 58C29 12 76-11 125-11C167-11 201 12 228 58C247 12 283-11 335-11C383-11 423 12 455 57C482 96 496 125 496 144C496 153 491 158 481 158C472 158 467 153 464 144C447 87 402 18 337 18C304 18 287 38 287 79C287 92 292 120 303 165L337 300C356 375 387 413 431 413C445 413 458 410 469 405C442 396 429 378 429 351C429 325 443 312 470 312C502 312 527 341 527 373Z"/><path id="MJX-6-NCM-N-29" d="M78-245C138-199 188-131 229-40C268 47 288 129 288 208L288 292C288 371 268 453 229 540C188 631 138 699 78 745C75 747 72 748 71 748C62 748 57 743 57 734C57 730 59 726 62 723C114 683 156 617 187 526C214 447 228 369 228 292L228 208C228 131 214 53 187-26C156-117 114-183 62-223C59-227 57-231 57-234C57-243 62-248 71-248C72-248 75-247 78-245Z"/></defs><g stroke="#000000" fill="#000000" stroke-width="0" transform="scale(1,-1)"><g data-mml-node="math" data-latex="f(x)" data-semantic-type="appl" data-semantic-role="simple function" data-semantic-annotation="clearspeak:simple;depth:1" data-semantic-id="6" data-semantic-children="0,4" data-semantic-content="5,0" data-semantic-attributes="latex:f(x)" data-semantic-owns="0 5 4" aria-level="0" data-speech-node="true" data-semantic-structure="(6 0 5 (4 1 2 3))"><g data-mml-node="mi" data-latex="f" data-semantic-type="identifier" data-semantic-role="simple function" data-semantic-font="italic" data-semantic-annotation="clearspeak:simple;nemeth:number;depth:2" data-semantic-id="0" data-semantic-parent="6" data-semantic-attributes="latex:f" data-semantic-operator="appl" aria-level="1" data-speech-node="true"><use data-c="1D453" xlink:href="#MJX-6-NCM-I-1D453" xmlns:xlink="http://www.w3.org/1999/xlink"/></g><g data-mml-node="mo" data-semantic-type="punctuation" data-semantic-role="application" data-semantic-annotation="nemeth:number;depth:2" data-semantic-id="5" data-semantic-parent="6" data-semantic-added="true" data-semantic-operator="appl" aria-level="1" data-speech-node="true" transform="translate(552,0)"><use data-c="2061" xlink:href="#MJX-6-NCM-N-2061" xmlns:xlink="http://www.w3.org/1999/xlink"/></g><g data-mml-node="mrow" data-semantic-added="true" data-semantic-type="fenced" data-semantic-role="leftright" data-semantic-annotation="depth:2" data-semantic-id="4" data-semantic-children="2" data-semantic-content="1,3" data-semantic-parent="6" data-semantic-owns="1 2 3" aria-level="1" data-speech-node="true" transform="translate(552,0)"><g data-mml-node="mo" data-latex="(" data-semantic-type="fence" data-semantic-role="open" data-semantic-annotation="depth:3" data-semantic-id="1" data-semantic-parent="4" data-semantic-attributes="latex:(" data-semantic-operator="fenced" aria-level="2" data-speech-node="true"><use data-c="28" xlink:href="#MJX-6-NCM-N-28" xmlns:xlink="http://www.w3.org/1999/xlink"/></g><g data-mml-node="mi" data-latex="x" data-semantic-type="identifier" data-semantic-role="latinletter" data-semantic-font="italic" data-semantic-annotation="clearspeak:simple;depth:3" data-semantic-id="2" data-semantic-parent="4" data-semantic-attributes="latex:x" aria-level="2" data-speech-node="true" transform="translate(389,0)"><use data-c="1D465" xlink:href="#MJX-6-NCM-I-1D465" xmlns:xlink="http://www.w3.org/1999/xlink"/></g><g data-mml-node="mo" data-latex=")" data-semantic-type="fence" data-semantic-role="close" data-semantic-annotation="depth:3" data-semantic-id="3" data-semantic-parent="4" data-semantic-attributes="latex:)" data-semantic-operator="fenced" aria-level="2" data-speech-node="true" transform="translate(961,0)"><use data-c="29" xlink:href="#MJX-6-NCM-N-29" xmlns:xlink="http://www.w3.org/1999/xlink"/></g></g></g></g></svg>